<mxfile host="Electron" modified="2024-05-27T17:11:02.977Z" agent="Mozilla/5.0 (Windows NT 10.0; Win64; x64) AppleWebKit/537.36 (KHTML, like Gecko) draw.io/24.4.8 Chrome/124.0.6367.207 Electron/30.0.6 Safari/537.36" etag="BxKZKMcydOycznGQ6Ie7" version="24.4.8" type="device">
  <diagram id="C5RBs43oDa-KdzZeNtuy" name="Page-1">
    <mxGraphModel dx="22916" dy="13957" grid="1" gridSize="10" guides="1" tooltips="1" connect="1" arrows="1" fold="1" page="1" pageScale="1" pageWidth="1100" pageHeight="850" math="0" shadow="0">
      <root>
        <mxCell id="WIyWlLk6GJQsqaUBKTNV-0" />
        <mxCell id="WIyWlLk6GJQsqaUBKTNV-1" parent="WIyWlLk6GJQsqaUBKTNV-0" />
        <mxCell id="RmSkHYoPFqEjaLnL-N-v-8" value="Homepage" style="swimlane;fontStyle=0;childLayout=stackLayout;horizontal=1;startSize=30;horizontalStack=0;resizeParent=1;resizeParentMax=0;resizeLast=0;collapsible=1;marginBottom=0;whiteSpace=wrap;html=1;" parent="WIyWlLk6GJQsqaUBKTNV-1" vertex="1">
          <mxGeometry x="-19710" y="-12740" width="240" height="60" as="geometry" />
        </mxCell>
        <mxCell id="RmSkHYoPFqEjaLnL-N-v-9" value="Nav-Bar" style="text;strokeColor=none;fillColor=none;align=left;verticalAlign=middle;spacingLeft=4;spacingRight=4;overflow=hidden;points=[[0,0.5],[1,0.5]];portConstraint=eastwest;rotatable=0;whiteSpace=wrap;html=1;" parent="RmSkHYoPFqEjaLnL-N-v-8" vertex="1">
          <mxGeometry y="30" width="240" height="30" as="geometry" />
        </mxCell>
        <mxCell id="RmSkHYoPFqEjaLnL-N-v-86" value="" style="edgeStyle=orthogonalEdgeStyle;rounded=0;orthogonalLoop=1;jettySize=auto;html=1;entryX=-0.007;entryY=0.143;entryDx=0;entryDy=0;entryPerimeter=0;" parent="WIyWlLk6GJQsqaUBKTNV-1" source="RmSkHYoPFqEjaLnL-N-v-21" target="RmSkHYoPFqEjaLnL-N-v-25" edge="1">
          <mxGeometry relative="1" as="geometry">
            <mxPoint x="-19860" y="-12460" as="targetPoint" />
          </mxGeometry>
        </mxCell>
        <mxCell id="RmSkHYoPFqEjaLnL-N-v-98" value="" style="edgeStyle=orthogonalEdgeStyle;rounded=0;orthogonalLoop=1;jettySize=auto;html=1;entryX=0.5;entryY=0;entryDx=0;entryDy=0;" parent="WIyWlLk6GJQsqaUBKTNV-1" source="RmSkHYoPFqEjaLnL-N-v-21" target="RmSkHYoPFqEjaLnL-N-v-92" edge="1">
          <mxGeometry relative="1" as="geometry">
            <mxPoint x="-19960" y="-12265" as="targetPoint" />
          </mxGeometry>
        </mxCell>
        <mxCell id="RmSkHYoPFqEjaLnL-N-v-21" value="User Login Page" style="swimlane;fontStyle=0;childLayout=stackLayout;horizontal=1;startSize=30;horizontalStack=0;resizeParent=1;resizeParentMax=0;resizeLast=0;collapsible=1;marginBottom=0;whiteSpace=wrap;html=1;direction=east;" parent="WIyWlLk6GJQsqaUBKTNV-1" vertex="1">
          <mxGeometry x="-20030" y="-12540" width="140" height="150" as="geometry" />
        </mxCell>
        <mxCell id="RmSkHYoPFqEjaLnL-N-v-71" value="Nav-Bar" style="text;strokeColor=none;fillColor=none;align=left;verticalAlign=middle;spacingLeft=4;spacingRight=4;overflow=hidden;points=[[0,0.5],[1,0.5]];portConstraint=eastwest;rotatable=0;whiteSpace=wrap;html=1;" parent="RmSkHYoPFqEjaLnL-N-v-21" vertex="1">
          <mxGeometry y="30" width="140" height="30" as="geometry" />
        </mxCell>
        <mxCell id="RmSkHYoPFqEjaLnL-N-v-22" value="Name" style="text;strokeColor=none;fillColor=none;align=left;verticalAlign=middle;spacingLeft=4;spacingRight=4;overflow=hidden;points=[[0,0.5],[1,0.5]];portConstraint=eastwest;rotatable=0;whiteSpace=wrap;html=1;" parent="RmSkHYoPFqEjaLnL-N-v-21" vertex="1">
          <mxGeometry y="60" width="140" height="30" as="geometry" />
        </mxCell>
        <mxCell id="RmSkHYoPFqEjaLnL-N-v-23" value="Password" style="text;strokeColor=none;fillColor=none;align=left;verticalAlign=middle;spacingLeft=4;spacingRight=4;overflow=hidden;points=[[0,0.5],[1,0.5]];portConstraint=eastwest;rotatable=0;whiteSpace=wrap;html=1;" parent="RmSkHYoPFqEjaLnL-N-v-21" vertex="1">
          <mxGeometry y="90" width="140" height="30" as="geometry" />
        </mxCell>
        <mxCell id="RmSkHYoPFqEjaLnL-N-v-56" value="Forgot UN/PW?" style="text;strokeColor=none;fillColor=none;align=left;verticalAlign=middle;spacingLeft=4;spacingRight=4;overflow=hidden;points=[[0,0.5],[1,0.5]];portConstraint=eastwest;rotatable=0;whiteSpace=wrap;html=1;" parent="RmSkHYoPFqEjaLnL-N-v-21" vertex="1">
          <mxGeometry y="120" width="140" height="30" as="geometry" />
        </mxCell>
        <mxCell id="RmSkHYoPFqEjaLnL-N-v-25" value="My Account" style="swimlane;fontStyle=0;childLayout=stackLayout;horizontal=1;startSize=30;horizontalStack=0;resizeParent=1;resizeParentMax=0;resizeLast=0;collapsible=1;marginBottom=0;whiteSpace=wrap;html=1;shadow=1;" parent="WIyWlLk6GJQsqaUBKTNV-1" vertex="1">
          <mxGeometry x="-19830" y="-12540" width="140" height="210" as="geometry">
            <mxRectangle x="180" y="232" width="100" height="30" as="alternateBounds" />
          </mxGeometry>
        </mxCell>
        <mxCell id="RmSkHYoPFqEjaLnL-N-v-87" value="Nav-Bar" style="text;strokeColor=none;fillColor=none;align=left;verticalAlign=middle;spacingLeft=4;spacingRight=4;overflow=hidden;points=[[0,0.5],[1,0.5]];portConstraint=eastwest;rotatable=0;whiteSpace=wrap;html=1;" parent="RmSkHYoPFqEjaLnL-N-v-25" vertex="1">
          <mxGeometry y="30" width="140" height="30" as="geometry" />
        </mxCell>
        <mxCell id="RmSkHYoPFqEjaLnL-N-v-26" value="Login" style="text;strokeColor=none;fillColor=none;align=left;verticalAlign=middle;spacingLeft=4;spacingRight=4;overflow=hidden;points=[[0,0.5],[1,0.5]];portConstraint=eastwest;rotatable=0;whiteSpace=wrap;html=1;" parent="RmSkHYoPFqEjaLnL-N-v-25" vertex="1">
          <mxGeometry y="60" width="140" height="30" as="geometry" />
        </mxCell>
        <mxCell id="RmSkHYoPFqEjaLnL-N-v-52" value="Logout" style="text;strokeColor=none;fillColor=none;align=left;verticalAlign=middle;spacingLeft=4;spacingRight=4;overflow=hidden;points=[[0,0.5],[1,0.5]];portConstraint=eastwest;rotatable=0;whiteSpace=wrap;html=1;" parent="RmSkHYoPFqEjaLnL-N-v-25" vertex="1">
          <mxGeometry y="90" width="140" height="30" as="geometry" />
        </mxCell>
        <mxCell id="RmSkHYoPFqEjaLnL-N-v-53" value="Reset Username/PW" style="text;strokeColor=none;fillColor=none;align=left;verticalAlign=middle;spacingLeft=4;spacingRight=4;overflow=hidden;points=[[0,0.5],[1,0.5]];portConstraint=eastwest;rotatable=0;whiteSpace=wrap;html=1;" parent="RmSkHYoPFqEjaLnL-N-v-25" vertex="1">
          <mxGeometry y="120" width="140" height="30" as="geometry" />
        </mxCell>
        <mxCell id="RmSkHYoPFqEjaLnL-N-v-54" value="See Items Checked out" style="text;strokeColor=none;fillColor=none;align=left;verticalAlign=middle;spacingLeft=4;spacingRight=4;overflow=hidden;points=[[0,0.5],[1,0.5]];portConstraint=eastwest;rotatable=0;whiteSpace=wrap;html=1;" parent="RmSkHYoPFqEjaLnL-N-v-25" vertex="1">
          <mxGeometry y="150" width="140" height="30" as="geometry" />
        </mxCell>
        <mxCell id="RmSkHYoPFqEjaLnL-N-v-55" value="Balance/Fines" style="text;strokeColor=none;fillColor=none;align=left;verticalAlign=middle;spacingLeft=4;spacingRight=4;overflow=hidden;points=[[0,0.5],[1,0.5]];portConstraint=eastwest;rotatable=0;whiteSpace=wrap;html=1;" parent="RmSkHYoPFqEjaLnL-N-v-25" vertex="1">
          <mxGeometry y="180" width="140" height="30" as="geometry" />
        </mxCell>
        <mxCell id="RmSkHYoPFqEjaLnL-N-v-29" value="Books" style="swimlane;fontStyle=0;childLayout=stackLayout;horizontal=1;startSize=30;horizontalStack=0;resizeParent=1;resizeParentMax=0;resizeLast=0;collapsible=1;marginBottom=0;whiteSpace=wrap;html=1;" parent="WIyWlLk6GJQsqaUBKTNV-1" vertex="1">
          <mxGeometry x="-19650" y="-12540" width="140" height="150" as="geometry" />
        </mxCell>
        <mxCell id="RmSkHYoPFqEjaLnL-N-v-74" value="Nav-Bar" style="text;strokeColor=none;fillColor=none;align=left;verticalAlign=middle;spacingLeft=4;spacingRight=4;overflow=hidden;points=[[0,0.5],[1,0.5]];portConstraint=eastwest;rotatable=0;whiteSpace=wrap;html=1;" parent="RmSkHYoPFqEjaLnL-N-v-29" vertex="1">
          <mxGeometry y="30" width="140" height="30" as="geometry" />
        </mxCell>
        <mxCell id="RmSkHYoPFqEjaLnL-N-v-30" value="See top 5" style="text;strokeColor=none;fillColor=none;align=left;verticalAlign=middle;spacingLeft=4;spacingRight=4;overflow=hidden;points=[[0,0.5],[1,0.5]];portConstraint=eastwest;rotatable=0;whiteSpace=wrap;html=1;" parent="RmSkHYoPFqEjaLnL-N-v-29" vertex="1">
          <mxGeometry y="60" width="140" height="30" as="geometry" />
        </mxCell>
        <mxCell id="RmSkHYoPFqEjaLnL-N-v-31" value="Books" style="text;strokeColor=none;fillColor=none;align=left;verticalAlign=middle;spacingLeft=4;spacingRight=4;overflow=hidden;points=[[0,0.5],[1,0.5]];portConstraint=eastwest;rotatable=0;whiteSpace=wrap;html=1;" parent="RmSkHYoPFqEjaLnL-N-v-29" vertex="1">
          <mxGeometry y="90" width="140" height="30" as="geometry" />
        </mxCell>
        <mxCell id="RmSkHYoPFqEjaLnL-N-v-58" value="Magazines" style="text;strokeColor=none;fillColor=none;align=left;verticalAlign=middle;spacingLeft=4;spacingRight=4;overflow=hidden;points=[[0,0.5],[1,0.5]];portConstraint=eastwest;rotatable=0;whiteSpace=wrap;html=1;" parent="RmSkHYoPFqEjaLnL-N-v-29" vertex="1">
          <mxGeometry y="120" width="140" height="30" as="geometry" />
        </mxCell>
        <mxCell id="RmSkHYoPFqEjaLnL-N-v-35" value="Audio" style="swimlane;fontStyle=0;childLayout=stackLayout;horizontal=1;startSize=30;horizontalStack=0;resizeParent=1;resizeParentMax=0;resizeLast=0;collapsible=1;marginBottom=0;whiteSpace=wrap;html=1;" parent="WIyWlLk6GJQsqaUBKTNV-1" vertex="1">
          <mxGeometry x="-19650" y="-12360" width="140" height="120" as="geometry" />
        </mxCell>
        <mxCell id="RmSkHYoPFqEjaLnL-N-v-88" value="Nav-Bar" style="text;strokeColor=none;fillColor=none;align=left;verticalAlign=middle;spacingLeft=4;spacingRight=4;overflow=hidden;points=[[0,0.5],[1,0.5]];portConstraint=eastwest;rotatable=0;whiteSpace=wrap;html=1;" parent="RmSkHYoPFqEjaLnL-N-v-35" vertex="1">
          <mxGeometry y="30" width="140" height="30" as="geometry" />
        </mxCell>
        <mxCell id="RmSkHYoPFqEjaLnL-N-v-36" value="Audiobooks" style="text;strokeColor=none;fillColor=none;align=left;verticalAlign=middle;spacingLeft=4;spacingRight=4;overflow=hidden;points=[[0,0.5],[1,0.5]];portConstraint=eastwest;rotatable=0;whiteSpace=wrap;html=1;" parent="RmSkHYoPFqEjaLnL-N-v-35" vertex="1">
          <mxGeometry y="60" width="140" height="30" as="geometry" />
        </mxCell>
        <mxCell id="RmSkHYoPFqEjaLnL-N-v-37" value="Music" style="text;strokeColor=none;fillColor=none;align=left;verticalAlign=middle;spacingLeft=4;spacingRight=4;overflow=hidden;points=[[0,0.5],[1,0.5]];portConstraint=eastwest;rotatable=0;whiteSpace=wrap;html=1;" parent="RmSkHYoPFqEjaLnL-N-v-35" vertex="1">
          <mxGeometry y="90" width="140" height="30" as="geometry" />
        </mxCell>
        <mxCell id="RmSkHYoPFqEjaLnL-N-v-39" value="Video" style="swimlane;fontStyle=0;childLayout=stackLayout;horizontal=1;startSize=30;horizontalStack=0;resizeParent=1;resizeParentMax=0;resizeLast=0;collapsible=1;marginBottom=0;whiteSpace=wrap;html=1;" parent="WIyWlLk6GJQsqaUBKTNV-1" vertex="1">
          <mxGeometry x="-19650" y="-12205" width="140" height="90" as="geometry" />
        </mxCell>
        <mxCell id="RmSkHYoPFqEjaLnL-N-v-89" value="Nav-Bar" style="text;strokeColor=none;fillColor=none;align=left;verticalAlign=middle;spacingLeft=4;spacingRight=4;overflow=hidden;points=[[0,0.5],[1,0.5]];portConstraint=eastwest;rotatable=0;whiteSpace=wrap;html=1;" parent="RmSkHYoPFqEjaLnL-N-v-39" vertex="1">
          <mxGeometry y="30" width="140" height="30" as="geometry" />
        </mxCell>
        <mxCell id="RmSkHYoPFqEjaLnL-N-v-40" value="Videos" style="text;strokeColor=none;fillColor=none;align=left;verticalAlign=middle;spacingLeft=4;spacingRight=4;overflow=hidden;points=[[0,0.5],[1,0.5]];portConstraint=eastwest;rotatable=0;whiteSpace=wrap;html=1;" parent="RmSkHYoPFqEjaLnL-N-v-39" vertex="1">
          <mxGeometry y="60" width="140" height="30" as="geometry" />
        </mxCell>
        <mxCell id="RmSkHYoPFqEjaLnL-N-v-43" value="All Media" style="swimlane;fontStyle=0;childLayout=stackLayout;horizontal=1;startSize=30;horizontalStack=0;resizeParent=1;resizeParentMax=0;resizeLast=0;collapsible=1;marginBottom=0;whiteSpace=wrap;html=1;" parent="WIyWlLk6GJQsqaUBKTNV-1" vertex="1">
          <mxGeometry x="-19650" y="-12080" width="140" height="120" as="geometry" />
        </mxCell>
        <mxCell id="RmSkHYoPFqEjaLnL-N-v-90" value="Nav-Bar" style="text;strokeColor=none;fillColor=none;align=left;verticalAlign=middle;spacingLeft=4;spacingRight=4;overflow=hidden;points=[[0,0.5],[1,0.5]];portConstraint=eastwest;rotatable=0;whiteSpace=wrap;html=1;" parent="RmSkHYoPFqEjaLnL-N-v-43" vertex="1">
          <mxGeometry y="30" width="140" height="30" as="geometry" />
        </mxCell>
        <mxCell id="RmSkHYoPFqEjaLnL-N-v-45" value="Audio" style="text;strokeColor=none;fillColor=none;align=left;verticalAlign=middle;spacingLeft=4;spacingRight=4;overflow=hidden;points=[[0,0.5],[1,0.5]];portConstraint=eastwest;rotatable=0;whiteSpace=wrap;html=1;" parent="RmSkHYoPFqEjaLnL-N-v-43" vertex="1">
          <mxGeometry y="60" width="140" height="30" as="geometry" />
        </mxCell>
        <mxCell id="RmSkHYoPFqEjaLnL-N-v-46" value="Visual" style="text;strokeColor=none;fillColor=none;align=left;verticalAlign=middle;spacingLeft=4;spacingRight=4;overflow=hidden;points=[[0,0.5],[1,0.5]];portConstraint=eastwest;rotatable=0;whiteSpace=wrap;html=1;" parent="RmSkHYoPFqEjaLnL-N-v-43" vertex="1">
          <mxGeometry y="90" width="140" height="30" as="geometry" />
        </mxCell>
        <mxCell id="RmSkHYoPFqEjaLnL-N-v-59" value="Contact" style="swimlane;fontStyle=0;childLayout=stackLayout;horizontal=1;startSize=30;horizontalStack=0;resizeParent=1;resizeParentMax=0;resizeLast=0;collapsible=1;marginBottom=0;whiteSpace=wrap;html=1;" parent="WIyWlLk6GJQsqaUBKTNV-1" vertex="1">
          <mxGeometry x="-19180" y="-12700" width="140" height="150" as="geometry" />
        </mxCell>
        <mxCell id="RmSkHYoPFqEjaLnL-N-v-72" value="Nav-Bar" style="text;strokeColor=none;fillColor=none;align=left;verticalAlign=middle;spacingLeft=4;spacingRight=4;overflow=hidden;points=[[0,0.5],[1,0.5]];portConstraint=eastwest;rotatable=0;whiteSpace=wrap;html=1;" parent="RmSkHYoPFqEjaLnL-N-v-59" vertex="1">
          <mxGeometry y="30" width="140" height="30" as="geometry" />
        </mxCell>
        <mxCell id="RmSkHYoPFqEjaLnL-N-v-60" value="Email Form" style="text;strokeColor=none;fillColor=none;align=left;verticalAlign=middle;spacingLeft=4;spacingRight=4;overflow=hidden;points=[[0,0.5],[1,0.5]];portConstraint=eastwest;rotatable=0;whiteSpace=wrap;html=1;" parent="RmSkHYoPFqEjaLnL-N-v-59" vertex="1">
          <mxGeometry y="60" width="140" height="30" as="geometry" />
        </mxCell>
        <mxCell id="RmSkHYoPFqEjaLnL-N-v-61" value="Phone #" style="text;strokeColor=none;fillColor=none;align=left;verticalAlign=middle;spacingLeft=4;spacingRight=4;overflow=hidden;points=[[0,0.5],[1,0.5]];portConstraint=eastwest;rotatable=0;whiteSpace=wrap;html=1;" parent="RmSkHYoPFqEjaLnL-N-v-59" vertex="1">
          <mxGeometry y="90" width="140" height="30" as="geometry" />
        </mxCell>
        <mxCell id="RmSkHYoPFqEjaLnL-N-v-62" value="Maps Address" style="text;strokeColor=none;fillColor=none;align=left;verticalAlign=middle;spacingLeft=4;spacingRight=4;overflow=hidden;points=[[0,0.5],[1,0.5]];portConstraint=eastwest;rotatable=0;whiteSpace=wrap;html=1;" parent="RmSkHYoPFqEjaLnL-N-v-59" vertex="1">
          <mxGeometry y="120" width="140" height="30" as="geometry" />
        </mxCell>
        <mxCell id="RmSkHYoPFqEjaLnL-N-v-63" value="Careers" style="swimlane;fontStyle=0;childLayout=stackLayout;horizontal=1;startSize=30;horizontalStack=0;resizeParent=1;resizeParentMax=0;resizeLast=0;collapsible=1;marginBottom=0;whiteSpace=wrap;html=1;" parent="WIyWlLk6GJQsqaUBKTNV-1" vertex="1">
          <mxGeometry x="-19000" y="-12700" width="140" height="120" as="geometry" />
        </mxCell>
        <mxCell id="RmSkHYoPFqEjaLnL-N-v-91" value="Nav-Bar" style="text;strokeColor=none;fillColor=none;align=left;verticalAlign=middle;spacingLeft=4;spacingRight=4;overflow=hidden;points=[[0,0.5],[1,0.5]];portConstraint=eastwest;rotatable=0;whiteSpace=wrap;html=1;" parent="RmSkHYoPFqEjaLnL-N-v-63" vertex="1">
          <mxGeometry y="30" width="140" height="30" as="geometry" />
        </mxCell>
        <mxCell id="RmSkHYoPFqEjaLnL-N-v-64" value="Job Listings" style="text;strokeColor=none;fillColor=none;align=left;verticalAlign=middle;spacingLeft=4;spacingRight=4;overflow=hidden;points=[[0,0.5],[1,0.5]];portConstraint=eastwest;rotatable=0;whiteSpace=wrap;html=1;" parent="RmSkHYoPFqEjaLnL-N-v-63" vertex="1">
          <mxGeometry y="60" width="140" height="30" as="geometry" />
        </mxCell>
        <mxCell id="RmSkHYoPFqEjaLnL-N-v-66" value="Application Download" style="text;strokeColor=none;fillColor=none;align=left;verticalAlign=middle;spacingLeft=4;spacingRight=4;overflow=hidden;points=[[0,0.5],[1,0.5]];portConstraint=eastwest;rotatable=0;whiteSpace=wrap;html=1;" parent="RmSkHYoPFqEjaLnL-N-v-63" vertex="1">
          <mxGeometry y="90" width="140" height="30" as="geometry" />
        </mxCell>
        <mxCell id="RmSkHYoPFqEjaLnL-N-v-67" value="Donations" style="swimlane;fontStyle=0;childLayout=stackLayout;horizontal=1;startSize=30;horizontalStack=0;resizeParent=1;resizeParentMax=0;resizeLast=0;collapsible=1;marginBottom=0;whiteSpace=wrap;html=1;" parent="WIyWlLk6GJQsqaUBKTNV-1" vertex="1">
          <mxGeometry x="-19400" y="-12700" width="170" height="150" as="geometry" />
        </mxCell>
        <mxCell id="RmSkHYoPFqEjaLnL-N-v-73" value="Nav-Bar" style="text;strokeColor=none;fillColor=none;align=left;verticalAlign=middle;spacingLeft=4;spacingRight=4;overflow=hidden;points=[[0,0.5],[1,0.5]];portConstraint=eastwest;rotatable=0;whiteSpace=wrap;html=1;" parent="RmSkHYoPFqEjaLnL-N-v-67" vertex="1">
          <mxGeometry y="30" width="170" height="30" as="geometry" />
        </mxCell>
        <mxCell id="RmSkHYoPFqEjaLnL-N-v-68" value="Drop-Off locations/hours for physical items" style="text;strokeColor=none;fillColor=none;align=left;verticalAlign=middle;spacingLeft=4;spacingRight=4;overflow=hidden;points=[[0,0.5],[1,0.5]];portConstraint=eastwest;rotatable=0;whiteSpace=wrap;html=1;" parent="RmSkHYoPFqEjaLnL-N-v-67" vertex="1">
          <mxGeometry y="60" width="170" height="30" as="geometry" />
        </mxCell>
        <mxCell id="RmSkHYoPFqEjaLnL-N-v-69" value="Cash Donation Link for FL Payment Portal" style="text;strokeColor=none;fillColor=none;align=left;verticalAlign=middle;spacingLeft=4;spacingRight=4;overflow=hidden;points=[[0,0.5],[1,0.5]];portConstraint=eastwest;rotatable=0;whiteSpace=wrap;html=1;" parent="RmSkHYoPFqEjaLnL-N-v-67" vertex="1">
          <mxGeometry y="90" width="170" height="30" as="geometry" />
        </mxCell>
        <mxCell id="RmSkHYoPFqEjaLnL-N-v-70" value="Cash Donation Link for PayPal" style="text;strokeColor=none;fillColor=none;align=left;verticalAlign=middle;spacingLeft=4;spacingRight=4;overflow=hidden;points=[[0,0.5],[1,0.5]];portConstraint=eastwest;rotatable=0;whiteSpace=wrap;html=1;" parent="RmSkHYoPFqEjaLnL-N-v-67" vertex="1">
          <mxGeometry y="120" width="170" height="30" as="geometry" />
        </mxCell>
        <mxCell id="RmSkHYoPFqEjaLnL-N-v-75" value="About" style="swimlane;fontStyle=0;childLayout=stackLayout;horizontal=1;startSize=30;horizontalStack=0;resizeParent=1;resizeParentMax=0;resizeLast=0;collapsible=1;marginBottom=0;whiteSpace=wrap;html=1;" parent="WIyWlLk6GJQsqaUBKTNV-1" vertex="1">
          <mxGeometry x="-19710" y="-12640" width="140" height="60" as="geometry" />
        </mxCell>
        <mxCell id="RmSkHYoPFqEjaLnL-N-v-76" value="Nav-Bar" style="text;strokeColor=none;fillColor=none;align=left;verticalAlign=middle;spacingLeft=4;spacingRight=4;overflow=hidden;points=[[0,0.5],[1,0.5]];portConstraint=eastwest;rotatable=0;whiteSpace=wrap;html=1;" parent="RmSkHYoPFqEjaLnL-N-v-75" vertex="1">
          <mxGeometry y="30" width="140" height="30" as="geometry" />
        </mxCell>
        <mxCell id="RmSkHYoPFqEjaLnL-N-v-83" value="" style="endArrow=none;html=1;rounded=0;" parent="WIyWlLk6GJQsqaUBKTNV-1" edge="1">
          <mxGeometry width="50" height="50" relative="1" as="geometry">
            <mxPoint x="-19970" y="-12540" as="sourcePoint" />
            <mxPoint x="-19970" y="-12630" as="targetPoint" />
          </mxGeometry>
        </mxCell>
        <mxCell id="RmSkHYoPFqEjaLnL-N-v-84" value="" style="endArrow=none;html=1;rounded=0;entryX=0;entryY=0;entryDx=0;entryDy=0;entryPerimeter=0;edgeStyle=entityRelationEdgeStyle;" parent="WIyWlLk6GJQsqaUBKTNV-1" target="RmSkHYoPFqEjaLnL-N-v-9" edge="1">
          <mxGeometry width="50" height="50" relative="1" as="geometry">
            <mxPoint x="-19970" y="-12630" as="sourcePoint" />
            <mxPoint x="-19790" y="-12580" as="targetPoint" />
          </mxGeometry>
        </mxCell>
        <mxCell id="RmSkHYoPFqEjaLnL-N-v-92" value="Reset UN/PW" style="swimlane;fontStyle=0;childLayout=stackLayout;horizontal=1;startSize=30;horizontalStack=0;resizeParent=1;resizeParentMax=0;resizeLast=0;collapsible=1;marginBottom=0;whiteSpace=wrap;html=1;" parent="WIyWlLk6GJQsqaUBKTNV-1" vertex="1">
          <mxGeometry x="-20020" y="-12130" width="140" height="150" as="geometry" />
        </mxCell>
        <mxCell id="RmSkHYoPFqEjaLnL-N-v-96" value="Nav-Bar" style="text;strokeColor=none;fillColor=none;align=left;verticalAlign=middle;spacingLeft=4;spacingRight=4;overflow=hidden;points=[[0,0.5],[1,0.5]];portConstraint=eastwest;rotatable=0;whiteSpace=wrap;html=1;" parent="RmSkHYoPFqEjaLnL-N-v-92" vertex="1">
          <mxGeometry y="30" width="140" height="30" as="geometry" />
        </mxCell>
        <mxCell id="RmSkHYoPFqEjaLnL-N-v-93" value="Card No Lookup (UN)" style="text;strokeColor=none;fillColor=none;align=left;verticalAlign=middle;spacingLeft=4;spacingRight=4;overflow=hidden;points=[[0,0.5],[1,0.5]];portConstraint=eastwest;rotatable=0;whiteSpace=wrap;html=1;" parent="RmSkHYoPFqEjaLnL-N-v-92" vertex="1">
          <mxGeometry y="60" width="140" height="30" as="geometry" />
        </mxCell>
        <mxCell id="RmSkHYoPFqEjaLnL-N-v-94" value="E-mail Lookup (UN)" style="text;strokeColor=none;fillColor=none;align=left;verticalAlign=middle;spacingLeft=4;spacingRight=4;overflow=hidden;points=[[0,0.5],[1,0.5]];portConstraint=eastwest;rotatable=0;whiteSpace=wrap;html=1;" parent="RmSkHYoPFqEjaLnL-N-v-92" vertex="1">
          <mxGeometry y="90" width="140" height="30" as="geometry" />
        </mxCell>
        <mxCell id="RmSkHYoPFqEjaLnL-N-v-95" value="E-mail Lookup (PW" style="text;strokeColor=none;fillColor=none;align=left;verticalAlign=middle;spacingLeft=4;spacingRight=4;overflow=hidden;points=[[0,0.5],[1,0.5]];portConstraint=eastwest;rotatable=0;whiteSpace=wrap;html=1;" parent="RmSkHYoPFqEjaLnL-N-v-92" vertex="1">
          <mxGeometry y="120" width="140" height="30" as="geometry" />
        </mxCell>
        <mxCell id="RmSkHYoPFqEjaLnL-N-v-100" value="FL Payment Portal" style="swimlane;fontStyle=0;childLayout=stackLayout;horizontal=1;startSize=30;horizontalStack=0;resizeParent=1;resizeParentMax=0;resizeLast=0;collapsible=1;marginBottom=0;whiteSpace=wrap;html=1;" parent="WIyWlLk6GJQsqaUBKTNV-1" vertex="1">
          <mxGeometry x="-19390" y="-12480" width="140" height="120" as="geometry" />
        </mxCell>
        <mxCell id="RmSkHYoPFqEjaLnL-N-v-104" value="Nav-Bar" style="text;strokeColor=none;fillColor=none;align=left;verticalAlign=middle;spacingLeft=4;spacingRight=4;overflow=hidden;points=[[0,0.5],[1,0.5]];portConstraint=eastwest;rotatable=0;whiteSpace=wrap;html=1;" parent="RmSkHYoPFqEjaLnL-N-v-100" vertex="1">
          <mxGeometry y="30" width="140" height="30" as="geometry" />
        </mxCell>
        <mxCell id="RmSkHYoPFqEjaLnL-N-v-101" value="Payment Form" style="text;strokeColor=none;fillColor=none;align=left;verticalAlign=middle;spacingLeft=4;spacingRight=4;overflow=hidden;points=[[0,0.5],[1,0.5]];portConstraint=eastwest;rotatable=0;whiteSpace=wrap;html=1;" parent="RmSkHYoPFqEjaLnL-N-v-100" vertex="1">
          <mxGeometry y="60" width="140" height="30" as="geometry" />
        </mxCell>
        <mxCell id="RmSkHYoPFqEjaLnL-N-v-103" value="Submit Button" style="text;strokeColor=none;fillColor=none;align=left;verticalAlign=middle;spacingLeft=4;spacingRight=4;overflow=hidden;points=[[0,0.5],[1,0.5]];portConstraint=eastwest;rotatable=0;whiteSpace=wrap;html=1;" parent="RmSkHYoPFqEjaLnL-N-v-100" vertex="1">
          <mxGeometry y="90" width="140" height="30" as="geometry" />
        </mxCell>
        <mxCell id="RmSkHYoPFqEjaLnL-N-v-105" value="PayPal Portal" style="swimlane;fontStyle=0;childLayout=stackLayout;horizontal=1;startSize=30;horizontalStack=0;resizeParent=1;resizeParentMax=0;resizeLast=0;collapsible=1;marginBottom=0;whiteSpace=wrap;html=1;" parent="WIyWlLk6GJQsqaUBKTNV-1" vertex="1">
          <mxGeometry x="-19390" y="-12310" width="140" height="90" as="geometry" />
        </mxCell>
        <mxCell id="RmSkHYoPFqEjaLnL-N-v-106" value="Payment Form" style="text;strokeColor=none;fillColor=none;align=left;verticalAlign=middle;spacingLeft=4;spacingRight=4;overflow=hidden;points=[[0,0.5],[1,0.5]];portConstraint=eastwest;rotatable=0;whiteSpace=wrap;html=1;" parent="RmSkHYoPFqEjaLnL-N-v-105" vertex="1">
          <mxGeometry y="30" width="140" height="30" as="geometry" />
        </mxCell>
        <mxCell id="RmSkHYoPFqEjaLnL-N-v-107" value="Submit Button" style="text;strokeColor=none;fillColor=none;align=left;verticalAlign=middle;spacingLeft=4;spacingRight=4;overflow=hidden;points=[[0,0.5],[1,0.5]];portConstraint=eastwest;rotatable=0;whiteSpace=wrap;html=1;" parent="RmSkHYoPFqEjaLnL-N-v-105" vertex="1">
          <mxGeometry y="60" width="140" height="30" as="geometry" />
        </mxCell>
        <mxCell id="RmSkHYoPFqEjaLnL-N-v-109" value="Payment Review" style="swimlane;fontStyle=0;childLayout=stackLayout;horizontal=1;startSize=30;horizontalStack=0;resizeParent=1;resizeParentMax=0;resizeLast=0;collapsible=1;marginBottom=0;whiteSpace=wrap;html=1;" parent="WIyWlLk6GJQsqaUBKTNV-1" vertex="1">
          <mxGeometry x="-19150" y="-12410" width="140" height="90" as="geometry" />
        </mxCell>
        <mxCell id="RmSkHYoPFqEjaLnL-N-v-110" value="Back/Edit Info" style="text;strokeColor=none;fillColor=none;align=left;verticalAlign=middle;spacingLeft=4;spacingRight=4;overflow=hidden;points=[[0,0.5],[1,0.5]];portConstraint=eastwest;rotatable=0;whiteSpace=wrap;html=1;" parent="RmSkHYoPFqEjaLnL-N-v-109" vertex="1">
          <mxGeometry y="30" width="140" height="30" as="geometry" />
        </mxCell>
        <mxCell id="RmSkHYoPFqEjaLnL-N-v-112" value="Submit" style="text;strokeColor=none;fillColor=none;align=left;verticalAlign=middle;spacingLeft=4;spacingRight=4;overflow=hidden;points=[[0,0.5],[1,0.5]];portConstraint=eastwest;rotatable=0;whiteSpace=wrap;html=1;" parent="RmSkHYoPFqEjaLnL-N-v-109" vertex="1">
          <mxGeometry y="60" width="140" height="30" as="geometry" />
        </mxCell>
        <mxCell id="RmSkHYoPFqEjaLnL-N-v-113" value="Thanks for Payment" style="swimlane;fontStyle=0;childLayout=stackLayout;horizontal=1;startSize=30;horizontalStack=0;resizeParent=1;resizeParentMax=0;resizeLast=0;collapsible=1;marginBottom=0;whiteSpace=wrap;html=1;" parent="WIyWlLk6GJQsqaUBKTNV-1" vertex="1">
          <mxGeometry x="-19150" y="-12280" width="140" height="90" as="geometry" />
        </mxCell>
        <mxCell id="RmSkHYoPFqEjaLnL-N-v-114" value="Home Button" style="text;strokeColor=none;fillColor=none;align=left;verticalAlign=middle;spacingLeft=4;spacingRight=4;overflow=hidden;points=[[0,0.5],[1,0.5]];portConstraint=eastwest;rotatable=0;whiteSpace=wrap;html=1;" parent="RmSkHYoPFqEjaLnL-N-v-113" vertex="1">
          <mxGeometry y="30" width="140" height="30" as="geometry" />
        </mxCell>
        <mxCell id="RmSkHYoPFqEjaLnL-N-v-115" value="Cancel Payment" style="text;strokeColor=none;fillColor=none;align=left;verticalAlign=middle;spacingLeft=4;spacingRight=4;overflow=hidden;points=[[0,0.5],[1,0.5]];portConstraint=eastwest;rotatable=0;whiteSpace=wrap;html=1;" parent="RmSkHYoPFqEjaLnL-N-v-113" vertex="1">
          <mxGeometry y="60" width="140" height="30" as="geometry" />
        </mxCell>
        <mxCell id="RmSkHYoPFqEjaLnL-N-v-117" value="" style="endArrow=classic;html=1;rounded=0;entryX=0.5;entryY=0;entryDx=0;entryDy=0;entryPerimeter=0;exitX=0.471;exitY=1;exitDx=0;exitDy=0;exitPerimeter=0;" parent="WIyWlLk6GJQsqaUBKTNV-1" source="RmSkHYoPFqEjaLnL-N-v-70" target="RmSkHYoPFqEjaLnL-N-v-100" edge="1">
          <mxGeometry width="50" height="50" relative="1" as="geometry">
            <mxPoint x="-19330" y="-12500" as="sourcePoint" />
            <mxPoint x="-19280" y="-12550" as="targetPoint" />
          </mxGeometry>
        </mxCell>
        <mxCell id="RmSkHYoPFqEjaLnL-N-v-119" value="" style="endArrow=classic;html=1;rounded=0;" parent="WIyWlLk6GJQsqaUBKTNV-1" edge="1">
          <mxGeometry width="50" height="50" relative="1" as="geometry">
            <mxPoint x="-19210" y="-12310" as="sourcePoint" />
            <mxPoint x="-19250" y="-12270" as="targetPoint" />
          </mxGeometry>
        </mxCell>
        <mxCell id="RmSkHYoPFqEjaLnL-N-v-120" value="" style="endArrow=classic;startArrow=classic;html=1;rounded=0;entryX=0;entryY=0.667;entryDx=0;entryDy=0;entryPerimeter=0;exitX=1;exitY=0;exitDx=0;exitDy=0;exitPerimeter=0;" parent="WIyWlLk6GJQsqaUBKTNV-1" source="RmSkHYoPFqEjaLnL-N-v-103" target="RmSkHYoPFqEjaLnL-N-v-110" edge="1">
          <mxGeometry width="50" height="50" relative="1" as="geometry">
            <mxPoint x="-19260" y="-12200" as="sourcePoint" />
            <mxPoint x="-19210" y="-12250" as="targetPoint" />
          </mxGeometry>
        </mxCell>
        <mxCell id="RmSkHYoPFqEjaLnL-N-v-121" value="" style="endArrow=classic;startArrow=classic;html=1;rounded=0;entryX=0;entryY=0.667;entryDx=0;entryDy=0;entryPerimeter=0;exitX=1;exitY=0;exitDx=0;exitDy=0;exitPerimeter=0;" parent="WIyWlLk6GJQsqaUBKTNV-1" source="RmSkHYoPFqEjaLnL-N-v-107" target="RmSkHYoPFqEjaLnL-N-v-112" edge="1">
          <mxGeometry width="50" height="50" relative="1" as="geometry">
            <mxPoint x="-19260" y="-12200" as="sourcePoint" />
            <mxPoint x="-19210" y="-12250" as="targetPoint" />
          </mxGeometry>
        </mxCell>
        <mxCell id="RmSkHYoPFqEjaLnL-N-v-125" value="" style="endArrow=none;html=1;rounded=0;exitX=0.882;exitY=1;exitDx=0;exitDy=0;exitPerimeter=0;" parent="WIyWlLk6GJQsqaUBKTNV-1" source="RmSkHYoPFqEjaLnL-N-v-70" edge="1">
          <mxGeometry width="50" height="50" relative="1" as="geometry">
            <mxPoint x="-19240" y="-12540" as="sourcePoint" />
            <mxPoint x="-19210" y="-12310" as="targetPoint" />
            <Array as="points">
              <mxPoint x="-19210" y="-12530" />
            </Array>
          </mxGeometry>
        </mxCell>
        <mxCell id="RmSkHYoPFqEjaLnL-N-v-127" value="" style="endArrow=classic;html=1;rounded=0;strokeColor=default;align=center;verticalAlign=middle;fontFamily=Helvetica;fontSize=11;fontColor=default;labelBackgroundColor=default;entryX=0.5;entryY=0;entryDx=0;entryDy=0;entryPerimeter=0;exitX=0.5;exitY=1;exitDx=0;exitDy=0;exitPerimeter=0;" parent="WIyWlLk6GJQsqaUBKTNV-1" source="RmSkHYoPFqEjaLnL-N-v-112" target="RmSkHYoPFqEjaLnL-N-v-113" edge="1">
          <mxGeometry width="50" height="50" relative="1" as="geometry">
            <mxPoint x="-19080" y="-12310" as="sourcePoint" />
            <mxPoint x="-19220" y="-12370" as="targetPoint" />
            <Array as="points">
              <mxPoint x="-19080" y="-12300" />
            </Array>
          </mxGeometry>
        </mxCell>
        <mxCell id="RmSkHYoPFqEjaLnL-N-v-135" value="User Local Machine" style="swimlane;fontStyle=0;childLayout=stackLayout;horizontal=1;startSize=30;horizontalStack=0;resizeParent=1;resizeParentMax=0;resizeLast=0;collapsible=1;marginBottom=0;whiteSpace=wrap;html=1;fontFamily=Helvetica;fontSize=11;fontColor=default;labelBackgroundColor=default;" parent="WIyWlLk6GJQsqaUBKTNV-1" vertex="1">
          <mxGeometry x="-18870" y="-12430" width="140" height="60" as="geometry" />
        </mxCell>
        <mxCell id="RmSkHYoPFqEjaLnL-N-v-139" value="" style="endArrow=classic;html=1;rounded=0;strokeColor=default;align=center;verticalAlign=middle;fontFamily=Helvetica;fontSize=11;fontColor=default;labelBackgroundColor=default;entryX=0.643;entryY=0;entryDx=0;entryDy=0;entryPerimeter=0;" parent="WIyWlLk6GJQsqaUBKTNV-1" target="RmSkHYoPFqEjaLnL-N-v-135" edge="1">
          <mxGeometry width="50" height="50" relative="1" as="geometry">
            <mxPoint x="-18910" y="-12580" as="sourcePoint" />
            <mxPoint x="-18680" y="-12440" as="targetPoint" />
          </mxGeometry>
        </mxCell>
        <mxCell id="RmSkHYoPFqEjaLnL-N-v-140" value="" style="endArrow=classic;startArrow=classic;html=1;rounded=0;strokeColor=default;align=center;verticalAlign=middle;fontFamily=Helvetica;fontSize=11;fontColor=default;labelBackgroundColor=default;exitX=1;exitY=1;exitDx=0;exitDy=0;exitPerimeter=0;" parent="WIyWlLk6GJQsqaUBKTNV-1" source="RmSkHYoPFqEjaLnL-N-v-9" edge="1">
          <mxGeometry width="50" height="50" relative="1" as="geometry">
            <mxPoint x="-19350" y="-12260" as="sourcePoint" />
            <mxPoint x="-19510" y="-12080" as="targetPoint" />
            <Array as="points">
              <mxPoint x="-19450" y="-12650" />
              <mxPoint x="-19410" y="-12110" />
            </Array>
          </mxGeometry>
        </mxCell>
        <mxCell id="RmSkHYoPFqEjaLnL-N-v-141" value="" style="endArrow=classic;startArrow=classic;html=1;rounded=0;strokeColor=default;align=center;verticalAlign=middle;fontFamily=Helvetica;fontSize=11;fontColor=default;labelBackgroundColor=default;entryX=0.833;entryY=1;entryDx=0;entryDy=0;entryPerimeter=0;exitX=0.999;exitY=0.167;exitDx=0;exitDy=0;exitPerimeter=0;" parent="WIyWlLk6GJQsqaUBKTNV-1" source="RmSkHYoPFqEjaLnL-N-v-40" target="RmSkHYoPFqEjaLnL-N-v-9" edge="1">
          <mxGeometry width="50" height="50" relative="1" as="geometry">
            <mxPoint x="-19350" y="-12260" as="sourcePoint" />
            <mxPoint x="-19300" y="-12310" as="targetPoint" />
            <Array as="points">
              <mxPoint x="-19450" y="-12190" />
              <mxPoint x="-19470" y="-12600" />
            </Array>
          </mxGeometry>
        </mxCell>
        <mxCell id="RmSkHYoPFqEjaLnL-N-v-142" value="" style="endArrow=classic;startArrow=classic;html=1;rounded=0;strokeColor=default;align=center;verticalAlign=middle;fontFamily=Helvetica;fontSize=11;fontColor=default;labelBackgroundColor=default;entryX=-1;entryY=-4.111;entryDx=0;entryDy=0;entryPerimeter=0;exitX=1;exitY=0.667;exitDx=0;exitDy=0;exitPerimeter=0;" parent="WIyWlLk6GJQsqaUBKTNV-1" source="RmSkHYoPFqEjaLnL-N-v-36" target="RmSkHYoPFqEjaLnL-N-v-105" edge="1">
          <mxGeometry width="50" height="50" relative="1" as="geometry">
            <mxPoint x="-19350" y="-12260" as="sourcePoint" />
            <mxPoint x="-19300" y="-12310" as="targetPoint" />
            <Array as="points">
              <mxPoint x="-19480" y="-12320" />
              <mxPoint x="-19490" y="-12590" />
            </Array>
          </mxGeometry>
        </mxCell>
        <mxCell id="RmSkHYoPFqEjaLnL-N-v-143" value="" style="endArrow=classic;startArrow=classic;html=1;rounded=0;strokeColor=default;align=center;verticalAlign=middle;fontFamily=Helvetica;fontSize=11;fontColor=default;labelBackgroundColor=default;exitX=0.333;exitY=1;exitDx=0;exitDy=0;exitPerimeter=0;entryX=0.5;entryY=0;entryDx=0;entryDy=0;" parent="WIyWlLk6GJQsqaUBKTNV-1" source="RmSkHYoPFqEjaLnL-N-v-9" target="RmSkHYoPFqEjaLnL-N-v-75" edge="1">
          <mxGeometry width="50" height="50" relative="1" as="geometry">
            <mxPoint x="-19350" y="-12260" as="sourcePoint" />
            <mxPoint x="-19650" y="-12660" as="targetPoint" />
          </mxGeometry>
        </mxCell>
        <mxCell id="RmSkHYoPFqEjaLnL-N-v-144" value="" style="endArrow=classic;startArrow=classic;html=1;rounded=0;strokeColor=default;align=center;verticalAlign=middle;fontFamily=Helvetica;fontSize=11;fontColor=default;labelBackgroundColor=default;entryX=0.667;entryY=1;entryDx=0;entryDy=0;entryPerimeter=0;exitX=0.715;exitY=0;exitDx=0;exitDy=0;exitPerimeter=0;" parent="WIyWlLk6GJQsqaUBKTNV-1" source="RmSkHYoPFqEjaLnL-N-v-29" target="RmSkHYoPFqEjaLnL-N-v-9" edge="1">
          <mxGeometry width="50" height="50" relative="1" as="geometry">
            <mxPoint x="-19350" y="-12260" as="sourcePoint" />
            <mxPoint x="-19300" y="-12310" as="targetPoint" />
          </mxGeometry>
        </mxCell>
        <mxCell id="RmSkHYoPFqEjaLnL-N-v-145" value="" style="endArrow=classic;startArrow=classic;html=1;rounded=0;strokeColor=default;align=center;verticalAlign=middle;fontFamily=Helvetica;fontSize=11;fontColor=default;labelBackgroundColor=default;entryX=0;entryY=1;entryDx=0;entryDy=0;entryPerimeter=0;exitX=0.143;exitY=0;exitDx=0;exitDy=0;exitPerimeter=0;" parent="WIyWlLk6GJQsqaUBKTNV-1" source="RmSkHYoPFqEjaLnL-N-v-25" target="RmSkHYoPFqEjaLnL-N-v-9" edge="1">
          <mxGeometry width="50" height="50" relative="1" as="geometry">
            <mxPoint x="-19350" y="-12260" as="sourcePoint" />
            <mxPoint x="-19300" y="-12310" as="targetPoint" />
            <Array as="points">
              <mxPoint x="-19810" y="-12630" />
            </Array>
          </mxGeometry>
        </mxCell>
        <mxCell id="RmSkHYoPFqEjaLnL-N-v-146" value="" style="endArrow=classic;startArrow=classic;html=1;rounded=0;strokeColor=default;align=center;verticalAlign=middle;fontFamily=Helvetica;fontSize=11;fontColor=default;labelBackgroundColor=default;entryX=1;entryY=0.333;entryDx=0;entryDy=0;entryPerimeter=0;exitX=0.588;exitY=0;exitDx=0;exitDy=0;exitPerimeter=0;" parent="WIyWlLk6GJQsqaUBKTNV-1" source="RmSkHYoPFqEjaLnL-N-v-67" target="RmSkHYoPFqEjaLnL-N-v-8" edge="1">
          <mxGeometry width="50" height="50" relative="1" as="geometry">
            <mxPoint x="-19360" y="-12260" as="sourcePoint" />
            <mxPoint x="-19310" y="-12310" as="targetPoint" />
            <Array as="points">
              <mxPoint x="-19300" y="-12720" />
            </Array>
          </mxGeometry>
        </mxCell>
        <mxCell id="RmSkHYoPFqEjaLnL-N-v-147" value="" style="endArrow=classic;startArrow=classic;html=1;rounded=0;strokeColor=default;align=center;verticalAlign=middle;fontFamily=Helvetica;fontSize=11;fontColor=default;labelBackgroundColor=default;exitX=0.429;exitY=0;exitDx=0;exitDy=0;exitPerimeter=0;" parent="WIyWlLk6GJQsqaUBKTNV-1" source="RmSkHYoPFqEjaLnL-N-v-59" edge="1">
          <mxGeometry width="50" height="50" relative="1" as="geometry">
            <mxPoint x="-19360" y="-12260" as="sourcePoint" />
            <mxPoint x="-19470" y="-12730" as="targetPoint" />
            <Array as="points">
              <mxPoint x="-19120" y="-12730" />
            </Array>
          </mxGeometry>
        </mxCell>
        <mxCell id="RmSkHYoPFqEjaLnL-N-v-148" value="" style="endArrow=classic;startArrow=classic;html=1;rounded=0;strokeColor=default;align=center;verticalAlign=middle;fontFamily=Helvetica;fontSize=11;fontColor=default;labelBackgroundColor=default;exitX=0.5;exitY=0;exitDx=0;exitDy=0;exitPerimeter=0;" parent="WIyWlLk6GJQsqaUBKTNV-1" source="RmSkHYoPFqEjaLnL-N-v-63" edge="1">
          <mxGeometry width="50" height="50" relative="1" as="geometry">
            <mxPoint x="-19360" y="-12260" as="sourcePoint" />
            <mxPoint x="-19470" y="-12740" as="targetPoint" />
            <Array as="points">
              <mxPoint x="-18930" y="-12740" />
            </Array>
          </mxGeometry>
        </mxCell>
      </root>
    </mxGraphModel>
  </diagram>
</mxfile>
